<?xml version="1.0" encoding="UTF-8"?> <svg xmlns="http://www.w3.org/2000/svg" xmlns:xlink="http://www.w3.org/1999/xlink" fill="none" height="45" viewBox="0 0 180 45" width="180"><clipPath id="a"><path d="m0 0h180v44.7619h-180z"></path></clipPath><g clip-path="url(#a)" fill="#000"><path d="m180 44.7619h-9.056l-12.55-44.7086773h8.738l2.383 9.5804273z"></path><path d="m155.799 44.2829c2.383 0 4.342-1.9693 4.342-4.3644s-1.959-4.3645-4.342-4.3645-4.343 1.9694-4.343 4.3645c0 2.4483 1.96 4.3644 4.343 4.3644z"></path><path d="m64.0247 44.7619h-9.0556l-12.5508-44.7086773h8.7379l2.383 9.5804273z"></path><path d="m39.8234 44.2829c2.3831 0 4.3425-1.9693 4.3425-4.3644s-1.9594-4.3645-4.3425-4.3645c-2.383 0-4.3424 1.9694-4.3424 4.3645 0 2.4483 1.9594 4.3644 4.3424 4.3644z"></path><path d="m16.5225 33.3186.3177 1.7032h.1589l.3178-1.65 7.4669-33.3718h9.1615l-12.4449 44.7619h-9.0556l-12.4448-44.7619h9.16152z"></path><path d="m101.73 29.0074h-28.7556v-6.9724h28.7556z"></path><path d="m124.342 26.9317v17.777h-8.685v-44.7087h14.511c4.395 0 7.837 1.17094 10.326 3.51283 2.489 2.34188 3.76 5.53536 3.76 9.68687 0 2.3419-.529 4.3644-1.536 6.0144-1.006 1.65-2.542 3.0338-4.554 4.0451 2.277.7983 3.919 2.0757 4.925 3.8854 1.006 1.8096 1.536 4.045 1.536 6.7595v3.1402c0 1.2242.159 2.5548.423 3.9387.265 1.3838.795 2.4483 1.483 3.0338v.6387h-9.002c-.689-.6387-1.165-1.7032-1.324-3.1935s-.265-2.9806-.265-4.5241v-3.0338c0-2.2354-.477-3.9386-1.377-5.216s-2.224-1.8629-3.919-1.8629h-6.302zm0-6.9725h5.826c1.747 0 3.124-.5322 4.024-1.6499.901-1.0645 1.377-2.608 1.377-4.6306 0-2.0225-.476-3.6725-1.377-4.89664-.9-1.22416-2.277-1.80963-4.024-1.80963h-5.826z"></path></g></svg> 