<?xml version="1.0" encoding="UTF-8"?> <svg xmlns="http://www.w3.org/2000/svg" xmlns:xlink="http://www.w3.org/1999/xlink" fill="none" height="28" viewBox="0 0 113 28" width="113"><clipPath id="a"><path d="m0 0h112.596v28h-112.596z"></path></clipPath><g clip-path="url(#a)" fill="#fff"><path d="m112.596 28h-5.665l-7.8507-27.9666748h5.4657l1.491 5.9928648z"></path><path d="m97.4571 27.7004c1.4906 0 2.7159-1.2319 2.7159-2.7301s-1.2253-2.7301-2.7159-2.7301c-1.4907 0-2.7164 1.2319-2.7164 2.7301 0 1.5315 1.2257 2.7301 2.7164 2.7301z"></path><path d="m40.0495 28h-5.6646l-7.8508-27.9666748h5.4658l1.4906 5.9928648z"></path><path d="m24.9109 27.7004c1.4907 0 2.7164-1.2319 2.7164-2.7301s-1.2257-2.7301-2.7164-2.7301-2.7163 1.2319-2.7163 2.7301c0 1.5315 1.2256 2.7301 2.7163 2.7301z"></path><path d="m10.3354 20.8419.1987 1.0654h.0994l.1987-1.0322 4.6708-20.8751h5.7309l-7.7847 28h-5.66456l-7.78464-28h5.73082z"></path><path d="m63.6353 18.1451h-17.9875v-4.3615h17.9875z"></path><path d="m77.7802 16.8466v11.1201h-5.4327v-27.9667h9.0766c2.7495 0 4.9027.732461 6.4596 2.19738 1.5569 1.46493 2.3519 3.46255 2.3519 6.05946 0 1.46492-.3312 2.73006-.9606 3.76216s-1.5901 1.8978-2.8489 2.5303c1.4245.4995 2.4514 1.2985 3.0808 2.4305s.9606 2.5303.9606 4.2283v1.9643c0 .7658.0994 1.5981.265 2.4637.1657.8657.4969 1.5316.9276 1.8978v.3995h-5.6315c-.4306-.3995-.7287-1.0654-.8281-1.9976s-.1656-1.8645-.1656-2.83v-1.8977c0-1.3983-.2982-2.4637-.8613-3.2628-.5632-.799-1.3913-1.1653-2.4514-1.1653h-3.942zm0-4.3615h3.6439c1.0932 0 1.9544-.3329 2.5176-1.0321.5631-.6658.8613-1.63136.8613-2.89652s-.2982-2.29726-.8613-3.06302c-.5632-.76575-1.4244-1.13199-2.5176-1.13199h-3.6439z"></path></g></svg> 